<svg width="60" height="60" viewBox="0 0 60 60" fill="none" xmlns="http://www.w3.org/2000/svg">
<path d="M30 60C46.5685 60 60 46.5685 60 30C60 13.4315 46.5685 0 30 0C13.4315 0 0 13.4315 0 30C0 46.5685 13.4315 60 30 60Z" fill="#D9D9D9"/>
<path d="M30.0001 50.6897C41.4267 50.6897 50.6897 41.4266 50.6897 30C50.6897 18.5734 41.4267 9.31036 30.0001 9.31036C18.5735 9.31036 9.31042 18.5734 9.31042 30C9.31042 41.4266 18.5735 50.6897 30.0001 50.6897Z" fill="#F7E4BA"/>
<path d="M8.20869 22.7431C8.16369 23.2875 8.2277 23.8354 8.39697 24.3548C5.29818 25.2175 3.4855 28.4288 4.34813 31.5276C4.79852 33.1456 5.92572 34.4904 7.44007 35.2169C7.18249 35.6978 7.02356 36.2254 6.97249 36.7686C6.82999 39.229 8.70615 41.3403 11.1663 41.4879C11.86 41.5454 12.558 41.4508 13.2115 41.2107L16.6159 32.1983L16.5518 24.8276L15.1325 19.4638C14.5313 19.1121 13.8605 18.896 13.167 18.8307C10.7178 18.5435 8.499 20.2944 8.20869 22.7431Z" fill="#6B9777"/>
<path d="M49.6552 14.4827C49.6627 12.2048 47.8221 10.3522 45.5443 10.3448C44.0279 10.3399 42.6311 11.1674 41.9069 12.4996C36.795 9.90231 30.5456 11.9409 27.9483 17.0528C25.3509 22.1647 27.3895 28.4141 32.5014 31.0114C37.6133 33.6088 43.8627 31.5702 46.4601 26.4583C47.741 23.9373 47.9381 21.0028 47.0059 18.3331C48.6002 17.7209 49.6531 16.1905 49.6552 14.4827Z" fill="#EBEBEB"/>
<path d="M36.2069 26.3793C38.7779 26.3793 40.8621 24.2951 40.8621 21.7241C40.8621 19.1532 38.7779 17.069 36.2069 17.069C33.6359 17.069 31.5518 19.1532 31.5518 21.7241C31.5518 24.2951 33.6359 26.3793 36.2069 26.3793Z" fill="#FBB540"/>
<path d="M20.6897 51.7241C26.403 51.7241 31.0345 47.0926 31.0345 41.3793C31.0345 35.666 26.403 31.0345 20.6897 31.0345C14.9764 31.0345 10.3448 35.666 10.3448 41.3793C10.3448 47.0926 14.9764 51.7241 20.6897 51.7241Z" fill="#F7BA61"/>
<path d="M15.5173 32.068C17.8026 32.068 19.6553 30.2154 19.6553 27.93C19.6553 25.6447 17.8026 23.7921 15.5173 23.7921C13.232 23.7921 11.3794 25.6447 11.3794 27.93C11.3794 30.2154 13.232 32.068 15.5173 32.068Z" fill="#DC4D41"/>
<path d="M16.1483 23.461C18.4336 23.461 20.2862 21.6084 20.2862 19.3231C20.2862 17.0378 18.4336 15.1852 16.1483 15.1852C13.863 15.1852 12.0104 17.0378 12.0104 19.3231C12.0104 21.6084 13.863 23.461 16.1483 23.461Z" fill="#DC4D41"/>
<path d="M51.5245 34.3014C50.9532 34.3016 50.4898 33.8387 50.4895 33.2674C50.4895 33.2278 50.4917 33.1883 50.4962 33.149L51.1097 27.8131C51.1743 27.2454 51.6869 26.8377 52.2546 26.9024C52.4401 26.9234 52.6164 26.9944 52.7648 27.1076L57.5235 30.7283C57.9781 31.0742 58.0663 31.7233 57.7203 32.178C57.592 32.3466 57.4148 32.4718 57.2131 32.5365L51.84 34.2538C51.7381 34.2865 51.6316 34.3027 51.5245 34.3014Z" fill="#8F563B"/>
<path d="M33.7884 57.2162C33.441 57.2161 33.117 57.0415 32.9256 56.7517L29.9597 52.2734C29.6442 51.797 29.7747 51.1552 30.2509 50.8398C30.406 50.7371 30.586 50.678 30.7718 50.6689L36.7439 50.3751C37.3145 50.3473 37.7997 50.7874 37.8275 51.358C37.8378 51.5705 37.7824 51.7811 37.6687 51.961L34.6687 56.7331C34.4817 57.03 34.1569 57.2119 33.8059 57.2162H33.7884Z" fill="#8F563B"/>
<path d="M22.7587 36.2069H24.8276V38.2759H22.7587V36.2069Z" fill="#F26B32"/>
<path d="M25.8622 39.3104H27.9311V41.3793H25.8622V39.3104Z" fill="#F26B32"/>
<path d="M22.7587 43.4483H24.8276V45.5173H22.7587V43.4483Z" fill="#F26B32"/>
<path d="M14.4828 43.4483H16.5518V45.5173H14.4828V43.4483Z" fill="#F26B32"/>
<path d="M16.5518 36.2069H18.6207V38.2759H16.5518V36.2069Z" fill="#F26B32"/>
<path d="M18.6207 46.5518H20.6897V48.6207H18.6207V46.5518Z" fill="#F26B32"/>
<path d="M18.6207 40.3448H20.6897V42.4138H18.6207V40.3448Z" fill="#F26B32"/>
<path d="M38.7383 53.0452C37.6473 53.0469 36.6121 52.5627 35.9141 51.7241L35.9069 51.7159C34.586 50.1393 34.7934 47.7904 36.3699 46.4695C36.4649 46.39 36.5638 46.3152 36.6662 46.2455L39.0217 44.3224C41.6514 42.1817 43.7898 39.5004 45.2917 36.4603L46.3552 34.3169C47.2045 32.3692 49.4718 31.4788 51.4195 32.3281C53.3671 33.1774 54.2576 35.4447 53.4083 37.3924L51.989 40.3852C50.1509 44.2527 47.3842 47.6052 43.9355 50.1434L40.7793 52.4576C40.1664 52.8384 39.4598 53.0418 38.7383 53.0452Z" fill="#8F563B"/>
</svg>
